Coordinates
version=1
nRows=48
nColumns=11
inDegrees=yes

Units are S.I. units (second, meters, Newtons, ...)
If the header above contains a line with 'inDegrees', this indicates whether rotational values are in degrees (yes) or radians (no).

endheader
time	pelvis_tilt	pelvis_tx	pelvis_ty	hip_flexion_l	hip_flexion_r	knee_angle_l	knee_angle_r	ankle_angle_l	ankle_angle_r	lumbar
      8.87000000	     -1.58457225	     -0.00405253	      0.72578124	     72.19156710	     72.19156710	    -77.74408790	    -77.74408790	      7.05712850	      7.05712850	    -41.35495283
      8.88000000	     -2.42006703	     -0.00149525	      0.72572481	     72.81238994	     72.81238994	    -77.64686704	    -77.64686704	      7.21856949	      7.21856949	    -41.46369906
      8.89000000	     -3.28225331	      0.00116111	      0.72571271	     73.44303285	     73.44303285	    -77.53415916	    -77.53415916	      7.38131516	      7.38131516	    -41.55107946
      8.90000000	     -4.17894943	      0.00389129	      0.72569850	     74.10037326	     74.10037326	    -77.40828839	    -77.40828839	      7.54830936	      7.54830936	    -41.60591329
      8.91000000	     -5.07943352	      0.00675915	      0.72583389	     74.73113611	     74.73113611	    -77.26989545	    -77.26989545	      7.70455417	      7.70455417	    -41.66942031
      8.92000000	     -6.01611774	      0.00970169	      0.72598400	     75.38420986	     75.38420986	    -77.11043768	    -77.11043768	      7.86474614	      7.86474614	    -41.69240090
      8.93000000	     -6.97661642	      0.01272563	      0.72620115	     76.04307632	     76.04307632	    -76.93677400	    -76.93677400	      8.02315115	      8.02315115	    -41.69285696
      8.94000000	     -7.75994547	      0.01588308	      0.72709225	     76.43859783	     76.43859783	    -76.68784302	    -76.68784302	      8.12447007	      8.12447007	    -41.93406660
      8.95000000	     -8.96012074	      0.01903023	      0.72684735	     77.35994897	     77.35994897	    -76.53793201	    -76.53793201	      8.34088439	      8.34088439	    -41.61283089
      8.96000000	     -9.97205092	      0.02230073	      0.72728796	     78.00811553	     78.00811553	    -76.31563236	    -76.31563236	      8.49959196	      8.49959196	    -41.53743559
      8.97000000	    -10.98437955	      0.02563887	      0.72781571	     78.63757487	     78.63757487	    -76.08186607	    -76.08186607	      8.66501487	      8.66501487	    -41.44502306
      8.98000000	    -12.00251171	      0.02907346	      0.72841443	     79.25271904	     79.25271904	    -75.83544964	    -75.83544964	      8.83511450	      8.83511450	    -41.32339508
      8.99000000	    -12.80849700	      0.03267614	      0.72967402	     79.58262187	     79.58262187	    -75.54744512	    -75.54744512	      8.94671707	      8.94671707	    -41.45094905
      9.00000000	    -13.97144087	      0.03614962	      0.72994871	     80.35672769	     80.35672769	    -75.31713333	    -75.31713333	      9.19387018	      9.19387018	    -41.06935942
      9.01000000	    -14.90087321	      0.03980698	      0.73086222	     80.83452299	     80.83452299	    -75.05839949	    -75.05839949	      9.38086975	      9.38086975	    -40.93887796
      9.02000000	    -15.79910806	      0.04351823	      0.73187589	     81.26888298	     81.26888298	    -74.79318813	    -74.79318813	      9.57843810	      9.57843810	    -40.79605295
      9.03000000	    -16.64733350	      0.04727636	      0.73299161	     81.64422676	     81.64422676	    -74.52988907	    -74.52988907	      9.78103001	      9.78103001	    -40.65573173
      9.04000000	    -17.44378981	      0.05106645	      0.73420874	     81.96242379	     81.96242379	    -74.26729325	    -74.26729325	      9.98025168	      9.98025168	    -40.51444263
      9.05000000	    -18.18667913	      0.05487555	      0.73550881	     82.22535731	     82.22535731	    -74.00918453	    -74.00918453	     10.18677119	     10.18677119	    -40.36805393
      9.06000000	    -18.86487693	      0.05869350	      0.73694940	     82.41832199	     82.41832199	    -73.75091101	    -73.75091101	     10.38708477	     10.38708477	    -40.23389358
      9.07000000	    -19.39693148	      0.06252969	      0.73876181	     82.43803727	     82.43803727	    -73.46394309	    -73.46394309	     10.49121760	     10.49121760	    -40.22258493
      9.08000000	    -20.05751003	      0.06627712	      0.74012666	     82.63417641	     82.63417641	    -73.22845160	    -73.22845160	     10.79291676	     10.79291676	    -39.95151853
      9.09000000	    -20.56908586	      0.07005355	      0.74189079	     82.65091057	     82.65091057	    -72.96158996	    -72.96158996	     11.01253392	     11.01253392	    -39.80909710
      9.10000000	    -20.98827632	      0.07382786	      0.74390598	     82.55905256	     82.55905256	    -72.66954050	    -72.66954050	     11.10059679	     11.10059679	    -39.72194294
      9.11000000	    -21.42436211	      0.07755278	      0.74587773	     82.48623255	     82.48623255	    -72.37807330	    -72.37807330	     11.27181446	     11.27181446	    -39.53740046
      9.12000000	    -21.81717630	      0.08123515	      0.74798781	     82.36095546	     82.36095546	    -72.06506829	    -72.06506829	     11.42441609	     11.42441609	    -39.35480603
      9.13000000	    -22.18223962	      0.08489897	      0.75020015	     82.19878170	     82.19878170	    -71.73496175	    -71.73496175	     11.59042650	     11.59042650	    -39.13920878
      9.14000000	    -22.51598606	      0.08858159	      0.75243054	     82.00756443	     82.00756443	    -71.42537077	    -71.42537077	     11.99652720	     11.99652720	    -38.88608113
      9.15000000	    -22.82737275	      0.09221735	      0.75490768	     81.76010864	     81.76010864	    -71.04295045	    -71.04295045	     12.06711515	     12.06711515	    -38.63289531
      9.16000000	    -23.12436669	      0.09581651	      0.75749153	     81.48739418	     81.48739418	    -70.63442635	    -70.63442635	     12.16589842	     12.16589842	    -38.34920016
      9.17000000	    -23.41587826	      0.09941265	      0.76016411	     81.19222890	     81.19222890	    -70.19980532	    -70.19980532	     12.25900080	     12.25900080	    -38.02478435
      9.18000000	    -23.62968326	      0.10302954	      0.76309937	     80.79453602	     80.79453602	    -69.74515867	    -69.74515867	     12.54858463	     12.54858463	    -37.76382290
      9.19000000	    -23.92572422	      0.10651244	      0.76599622	     80.47023887	     80.47023887	    -69.24252292	    -69.24252292	     12.61205091	     12.61205091	    -37.37713227
      9.20000000	    -24.20556161	      0.10997429	      0.76899174	     80.11884893	     80.11884893	    -68.71390414	    -68.71390414	     12.67477926	     12.67477926	    -36.97602799
      9.21000000	    -24.46888815	      0.11336940	      0.77211100	     79.73962670	     79.73962670	    -68.15421856	    -68.15421856	     12.73473864	     12.73473864	    -36.57114815
      9.22000000	    -24.72151951	      0.11674001	      0.77533573	     79.33322238	     79.33322238	    -67.56442169	    -67.56442169	     12.78451635	     12.78451635	    -36.15897662
      9.23000000	    -24.96864799	      0.12006495	      0.77864823	     78.90778362	     78.90778362	    -66.94246915	    -66.94246915	     12.81928569	     12.81928569	    -35.73332785
      9.24000000	    -25.19232213	      0.12336303	      0.78204238	     78.45402802	     78.45402802	    -66.30632410	    -66.30632410	     12.83128483	     12.83128483	    -35.31437451
      9.25000000	    -25.39918681	      0.12666143	      0.78550728	     77.97004457	     77.97004457	    -65.64670916	    -65.64670916	     12.81640012	     12.81640012	    -34.89274664
      9.26000000	    -25.46684350	      0.13002020	      0.78931709	     77.32468473	     77.32468473	    -64.95359970	    -64.95359970	     12.66627965	     12.66627965	    -34.63040922
      9.27000000	    -25.71263778	      0.13320629	      0.79267114	     76.89027960	     76.89027960	    -64.27006533	    -64.27006533	     12.65886106	     12.65886106	    -34.10777371
      9.28000000	    -25.91435970	      0.13638371	      0.79613180	     76.40179481	     76.40179481	    -63.56107216	    -63.56107216	     12.61328926	     12.61328926	    -33.61583113
      9.29000000	    -26.05766718	      0.13960640	      0.79968396	     75.85631632	     75.85631632	    -62.85693330	    -62.85693330	     12.51594070	     12.51594070	    -33.16883739
      9.30000000	    -26.15548113	      0.14287770	      0.80327090	     75.26251575	     75.26251575	    -62.15496943	    -62.15496943	     12.37666539	     12.37666539	    -32.74618026
      9.31000000	    -26.23649167	      0.14612950	      0.80683606	     74.66327716	     74.66327716	    -61.45350570	    -61.45350570	     12.23547064	     12.23547064	    -32.31214099
      9.32000000	    -26.11045469	      0.14954293	      0.81082996	     73.83053812	     73.83053812	    -60.73136521	    -60.73136521	     11.85241976	     11.85241976	    -32.11901213
      9.33000000	    -26.26016896	      0.15271016	      0.81406257	     73.33948478	     73.33948478	    -60.07035713	    -60.07035713	     11.83181445	     11.83181445	    -31.52698308
      9.34000000	    -26.33690187	      0.15590988	      0.81744034	     72.76156471	     72.76156471	    -59.38710493	    -59.38710493	     11.76739760	     11.76739760	    -31.00499390
